<svg width="78" height="78" viewBox="0 0 78 78" fill="none" xmlns="http://www.w3.org/2000/svg">
<path d="M77.5 39C77.5 31.3854 75.242 23.9418 71.0116 17.6105C66.7811 11.2793 60.7683 6.34461 53.7333 3.43064C46.6984 0.516664 38.9573 -0.245764 31.489 1.23977C24.0208 2.7253 17.1607 6.39207 11.7764 11.7764C6.39207 17.1607 2.7253 24.0208 1.23977 31.489C-0.245764 38.9573 0.516664 46.6984 3.43064 53.7333C6.34461 60.7683 11.2793 66.7811 17.6105 71.0116C23.9418 75.242 31.3854 77.5 39 77.5V47C39 42.5817 42.5817 39 47 39H77.5Z" fill="#C7ECC7"/>
</svg>
