<svg width="20" height="20" viewBox="0 0 20 20" fill="none" xmlns="http://www.w3.org/2000/svg">
<path d="M19.9492 5.88119C19.9023 4.81828 19.7304 4.0876 19.4842 3.45439C19.2302 2.78229 18.8394 2.18057 18.3275 1.68034C17.8272 1.17233 17.2215 0.777568 16.5572 0.527549C15.9204 0.281359 15.1934 0.109418 14.1306 0.0626025C13.0597 0.0117233 12.7198 0 10.0039 0C7.28799 0 6.94805 0.0117233 5.88119 0.0586165C4.81832 0.10551 4.0876 0.27753 3.45458 0.523563C2.78229 0.777568 2.18057 1.16834 1.68034 1.68034C1.17233 2.18053 0.777763 2.78624 0.527549 3.45056C0.281359 4.0876 0.109457 4.81437 0.0626025 5.87721C0.0117624 6.94805 0 7.28799 0 10.0039C0 12.7198 0.0117624 13.0598 0.0586165 14.1266C0.10551 15.1895 0.27753 15.9202 0.523758 16.5534C0.777763 17.2255 1.17233 17.8272 1.68034 18.3274C2.18057 18.8354 2.78628 19.2302 3.4506 19.4802C4.08757 19.7264 4.81433 19.8984 5.8774 19.9452C6.94407 19.9922 7.2842 20.0038 10.0001 20.0038C12.716 20.0038 13.0559 19.9922 14.1228 19.9452C15.1857 19.8983 15.9164 19.7265 16.5494 19.4802C17.2143 19.2232 17.8181 18.83 18.3221 18.326C18.8262 17.822 19.2193 17.2182 19.4764 16.5534C19.7225 15.9164 19.8945 15.1895 19.9414 14.1266C19.9883 13.0598 20 12.7198 20 10.0039C20 7.28799 19.996 6.94801 19.9492 5.88119ZM18.1478 14.0484C18.1047 15.0254 17.9406 15.5529 17.8039 15.9046C17.4677 16.7761 16.7761 17.4677 15.9046 17.8039C15.5529 17.9406 15.0216 18.1047 14.0484 18.1476C12.9933 18.1947 12.6769 18.2062 10.0079 18.2062C7.33883 18.2062 7.01843 18.1947 5.96712 18.1476C4.99018 18.1047 4.46263 17.9406 4.11093 17.8039C3.67729 17.6436 3.28256 17.3896 2.96213 17.0574C2.62997 16.7331 2.37596 16.3423 2.21567 15.9086C2.07889 15.5569 1.91481 15.0254 1.87194 14.0524C1.82489 12.9973 1.81332 12.6807 1.81332 10.0117C1.81332 7.34262 1.82489 7.02222 1.87194 5.97111C1.91481 4.99417 2.07889 4.46662 2.21567 4.11492C2.37596 3.68108 2.62997 3.28643 2.96611 2.96592C3.2903 2.63376 3.68108 2.37975 4.11492 2.21965C4.46662 2.08288 4.99815 1.91875 5.97111 1.87573C7.02621 1.82884 7.34282 1.81711 10.0117 1.81711C12.6847 1.81711 13.0011 1.82884 14.0524 1.87573C15.0294 1.91879 15.5569 2.08284 15.9086 2.21961C16.3422 2.37975 16.737 2.63376 17.0574 2.96592C17.3896 3.2903 17.6436 3.68108 17.8039 4.11492C17.9406 4.46662 18.1047 4.99796 18.1478 5.97111C18.1947 7.02621 18.2064 7.34262 18.2064 10.0117C18.2064 12.6807 18.1947 12.9933 18.1478 14.0484Z" fill="white"/>
<path d="M10.004 4.86521C7.16699 4.86521 4.86523 7.16681 4.86523 10.0039C4.86523 12.841 7.16699 15.1426 10.004 15.1426C12.841 15.1426 15.1427 12.841 15.1427 10.0039C15.1427 7.16681 12.841 4.86521 10.004 4.86521ZM10.004 13.3373C8.16347 13.3373 6.67055 11.8446 6.67055 10.0039C6.67055 8.16329 8.16347 6.6706 10.0039 6.6706C11.8445 6.6706 13.3373 8.16329 13.3373 10.0039C13.3373 11.8446 11.8445 13.3373 10.004 13.3373ZM16.5456 4.66201C16.5456 5.32453 16.0084 5.86169 15.3458 5.86169C14.6833 5.86169 14.1461 5.32453 14.1461 4.66201C14.1461 3.99941 14.6833 3.4624 15.3458 3.4624C16.0084 3.4624 16.5456 3.99937 16.5456 4.66201Z" fill="white"/>
</svg>
