<svg width="58" height="58" viewBox="0 0 58 58" fill="none" xmlns="http://www.w3.org/2000/svg">
<path fill-rule="evenodd" clip-rule="evenodd" d="M11.332 2.22914C11.8744 1.53496 12.5677 0.973448 13.3594 0.587208C14.1512 0.200969 15.0205 0.000152732 15.9014 0H36.2957C37.1768 5.90126e-06 38.0463 0.200751 38.8382 0.586996C39.6301 0.973241 40.3236 1.53483 40.866 2.22914L51.7892 16.211C52.0545 16.5506 52.1987 16.9691 52.199 17.4V33.8334C52.199 34.3462 51.9954 34.8379 51.6328 35.2005C51.2702 35.5631 50.7785 35.7668 50.2657 35.7668C49.753 35.7668 49.2613 35.5631 48.8987 35.2005C48.5361 34.8379 48.3324 34.3462 48.3324 33.8334V19.3334H3.8666V45.4334C3.8666 45.9462 4.07028 46.438 4.43285 46.8005C4.79541 47.1631 5.28715 47.3668 5.79989 47.3668H29.9661C30.4789 47.3668 30.9706 47.5705 31.3332 47.933C31.6957 48.2956 31.8994 48.7874 31.8994 49.3001C31.8994 49.8129 31.6957 50.3046 31.3332 50.6672C30.9706 51.0298 30.4789 51.2335 29.9661 51.2335H5.79989C4.26167 51.2335 2.78644 50.6224 1.69875 49.5347C0.611058 48.447 0 46.9717 0 45.4334V17.4C7.5582e-05 16.9688 0.144343 16.5499 0.409859 16.2101L11.332 2.22914ZM37.8201 4.61101L46.3025 15.4667H28.0328V3.86668H36.2967C36.5904 3.86672 36.8803 3.93368 37.1442 4.06249C37.4082 4.19129 37.6394 4.37952 37.8201 4.61101ZM24.1662 3.86668V15.4667H5.89656L14.3789 4.61005C14.5596 4.37868 14.7906 4.1915 15.0544 4.0627C15.3182 3.9339 15.6078 3.86686 15.9014 3.86668H24.1662Z" fill="#228B22"/>
<path d="M35.2839 58C34.7711 58 34.2794 57.7963 33.9168 57.4337C33.5543 57.0712 33.3506 56.5794 33.3506 56.0667C33.3506 55.5539 33.5543 55.0621 33.9168 54.6996C34.2794 54.337 34.7711 54.1333 35.2839 54.1333H49.3003C50.5821 54.1333 51.8115 53.6241 52.7179 52.7177C53.6243 51.8112 54.1335 50.5819 54.1335 49.3C54.1335 48.0181 53.6243 46.7887 52.7179 45.8823C51.8115 44.9758 50.5821 44.4666 49.3003 44.4666H40.9929L43.7923 46.8659C43.9882 47.0302 44.1495 47.2318 44.2669 47.4588C44.3844 47.6859 44.4556 47.9341 44.4765 48.1889C44.4974 48.4437 44.4676 48.7001 44.3887 48.9433C44.3099 49.1865 44.1836 49.4116 44.0171 49.6056C43.8507 49.7997 43.6474 49.9588 43.4191 50.0738C43.1908 50.1888 42.9419 50.2573 42.6869 50.2754C42.4319 50.2936 42.1758 50.261 41.9335 50.1795C41.6912 50.098 41.4674 49.9692 41.2752 49.8007L34.5086 44.0007C34.2969 43.8192 34.1269 43.594 34.0104 43.3407C33.8939 43.0873 33.8335 42.8117 33.8335 42.5328C33.8335 42.2539 33.8939 41.9783 34.0104 41.725C34.1269 41.4716 34.2969 41.2464 34.5086 41.0649L41.2752 35.2649C41.4679 35.0996 41.6914 34.9739 41.9327 34.895C42.174 34.8161 42.4286 34.7854 42.6817 34.8049C42.9349 34.8243 43.1818 34.8934 43.4082 35.0083C43.6347 35.1231 43.8363 35.2814 44.0016 35.4742C44.1669 35.6669 44.2926 35.8904 44.3715 36.1317C44.4504 36.3731 44.4811 36.6276 44.4616 36.8808C44.4422 37.134 44.3731 37.3808 44.2582 37.6073C44.1434 37.8338 43.9851 38.0354 43.7923 38.2007L40.9939 40.5999H49.3003C51.6076 40.5999 53.8205 41.5166 55.452 43.1481C57.0835 44.7797 58.0001 46.9926 58.0001 49.3C58.0001 51.6074 57.0835 53.8202 55.452 55.4518C53.8205 57.0834 51.6076 58 49.3003 58H35.2839Z" fill="#5A5A5A"/>
</svg>
