<svg width="60" height="45" viewBox="0 0 60 45" fill="none" xmlns="http://www.w3.org/2000/svg">
<path d="M51.5759 39.7443H49.539L49.5327 37.7074C49.5264 35.9975 48.1308 34.6081 46.4208 34.6081H46.4082C44.7045 34.6144 43.3152 36.0037 43.3089 37.7074L43.3026 39.7443H17.6404V37.7011C17.6404 36.8713 17.3135 36.0918 16.7288 35.5008C16.1442 34.9162 15.3583 34.5892 14.5285 34.5892C12.8122 34.5892 11.4166 35.9849 11.4166 37.7011V39.7443H4.06748C1.82942 39.738 0.00628667 37.9149 0 35.6831V4.06747C0.00628667 1.82942 1.82942 0.00628667 4.06119 0H38.1727C40.4107 0.00628667 42.2339 1.82942 42.2401 4.06119V9.41743H50.7774C52.3303 9.42371 53.7259 10.2913 54.4174 11.6806L54.4237 11.6869L60 22.9715V35.6831C59.9937 37.9212 58.1706 39.7443 55.9388 39.7506H51.5759V39.7443ZM53.3173 35.658H55.9137V23.9208L50.7649 13.5038H38.1538V4.08633H4.08634V35.658H7.62573C8.50587 32.6844 11.2657 30.5029 14.5285 30.5029C16.4522 30.5029 18.2565 31.251 19.6144 32.6089C20.4757 33.4702 21.0918 34.5138 21.4313 35.6517H39.5243C39.8638 34.5201 40.4736 33.4828 41.3349 32.6215C42.6865 31.2699 44.4845 30.5218 46.3956 30.5155H46.4208C49.671 30.5218 52.4308 32.6907 53.3173 35.658Z" fill="#228B22"/>
<path d="M14.5284 44.9119C12.6109 44.9119 10.8066 44.1701 9.44873 42.8122C8.08452 41.4543 7.3364 39.65 7.33012 37.7263C7.32383 35.8026 8.07195 33.992 9.42987 32.6341C10.7878 31.2699 12.5921 30.5218 14.5158 30.5155H14.5472C16.4521 30.5155 18.2438 31.2573 19.6017 32.5964C20.9659 33.948 21.7203 35.7523 21.7266 37.6697V37.6948C21.7329 41.6617 18.5141 44.8994 14.5409 44.9057C14.5409 44.9119 14.5346 44.9119 14.5284 44.9119ZM14.5158 34.6018C13.6859 34.6018 12.9064 34.9287 12.3217 35.5197C11.7371 36.1106 11.4165 36.8902 11.4165 37.72C11.4165 38.5498 11.7434 39.3294 12.3343 39.9203C12.919 40.505 13.6985 40.8256 14.5284 40.8256H14.5346C15.3645 40.8256 16.144 40.4987 16.735 39.9078C17.3196 39.3168 17.6403 38.5373 17.6403 37.7074V37.6886C17.634 36.8587 17.3134 36.0855 16.7224 35.5008C16.1377 34.9224 15.3645 34.6018 14.5409 34.6018H14.5284H14.5158ZM46.4206 44.9119C44.5032 44.9119 42.6989 44.1701 41.341 42.8122C39.9768 41.4543 39.2287 39.65 39.2224 37.7263C39.2161 35.8026 39.9642 33.992 41.3222 32.6341C42.6801 31.2699 44.4843 30.5218 46.4081 30.5155H46.4395C48.3444 30.5155 50.1361 31.2573 51.494 32.5964C52.8582 33.948 53.6126 35.7523 53.6189 37.6697V37.6948C53.6252 41.6617 50.4064 44.8994 46.4332 44.9057C46.4332 44.9119 46.4269 44.9119 46.4206 44.9119ZM46.4144 34.6018C45.5845 34.6018 44.805 34.9287 44.2203 35.5197C43.6356 36.1106 43.315 36.8902 43.315 37.72C43.315 38.5498 43.6419 39.3294 44.2329 39.9203C44.8175 40.505 45.5971 40.8256 46.4269 40.8256H46.4332C48.1495 40.8193 49.5388 39.4237 49.5388 37.7074V37.6886C49.5325 36.8587 49.2119 36.0855 48.621 35.5008C48.0363 34.9224 47.2631 34.6018 46.4395 34.6018H46.4269H46.4144ZM40.1968 27.3596C39.0715 27.3596 38.1537 26.4417 38.1537 25.3164V11.4543C38.1537 10.329 39.0715 9.41113 40.1968 9.41113C41.3222 9.41113 42.24 10.329 42.24 11.4543V25.3101C42.24 26.4417 41.3222 27.3596 40.1968 27.3596Z" fill="#5A5A5A"/>
</svg>
