<svg width="48" height="49" viewBox="0 0 48 49" fill="none" xmlns="http://www.w3.org/2000/svg">
<path d="M37.5505 48.6766H10.4307C4.69382 48.6766 0 43.9828 0 38.2459V37.8982L1.04307 10.083C1.21692 4.34613 5.91073 0 11.4738 0H36.5075C42.0705 0 46.7643 4.34613 46.9382 10.083L47.9812 37.8982C48.1551 40.6797 47.112 43.2874 45.1997 45.3736C43.2874 47.4597 40.6797 48.6766 37.8982 48.6766H37.5505ZM11.4738 3.4769C7.64918 3.4769 4.69382 6.43227 4.51997 10.083L3.4769 38.2459C3.4769 42.0705 6.60611 45.1997 10.4307 45.1997H37.8982C39.8105 45.1997 41.549 44.3305 42.7659 42.9397C43.9828 41.549 44.6782 39.8105 44.6782 37.8982L43.6351 10.083C43.4613 6.25842 40.5059 3.4769 36.6813 3.4769H11.4738Z" fill="#228B22"/>
<path d="M23.9904 20.8615C17.2105 20.8615 11.8213 15.4723 11.8213 8.69231C11.8213 7.64924 12.5167 6.95386 13.5597 6.95386C14.6028 6.95386 15.2982 7.64924 15.2982 8.69231C15.2982 13.56 19.1228 17.3846 23.9904 17.3846C28.8581 17.3846 32.6827 13.56 32.6827 8.69231C32.6827 7.64924 33.3781 6.95386 34.4212 6.95386C35.4642 6.95386 36.1596 7.64924 36.1596 8.69231C36.1596 15.4723 30.7704 20.8615 23.9904 20.8615Z" fill="#5A5A5A"/>
</svg>
