<svg width="53" height="53" viewBox="0 0 53 53" fill="none" xmlns="http://www.w3.org/2000/svg">
<path d="M26.5002 25.2368C27.752 25.2368 28.9159 24.7353 31.2434 23.7324L32.9229 23.0086C37.0623 21.2251 39.1318 20.3333 39.1318 18.921C39.1318 17.5088 37.0623 16.617 32.9229 14.8334L31.2434 14.1096C28.9159 13.1067 27.752 12.6052 26.5002 12.6052C25.2484 12.6052 24.0846 13.1067 21.7571 14.1096L20.0775 14.8334C15.9383 16.617 13.8687 17.5088 13.8687 18.921C13.8687 20.3333 15.9383 21.2251 20.0775 23.0086L21.7571 23.7324C24.0846 24.7353 25.2484 25.2368 26.5002 25.2368ZM26.5002 25.2368V40.3947" stroke="#5A5A5A" stroke-width="5" stroke-linejoin="round"/>
<path d="M39.1318 18.921V34.0789C39.1318 35.4911 37.0623 36.3829 32.9229 38.1665L31.2434 38.8903C28.9159 39.8932 27.752 40.3947 26.5002 40.3947C25.2484 40.3947 24.0846 39.8932 21.7571 38.8903L20.0775 38.1665C15.9383 36.3829 13.8687 35.4911 13.8687 34.0789V18.921" stroke="#5A5A5A" stroke-width="5" stroke-linejoin="round"/>
<path d="M19.2855 2.5C12.573 2.65347 8.65231 3.29468 5.97351 5.97351C3.29468 8.65231 2.65347 12.573 2.5 19.2855M33.7144 2.5C40.4271 2.65347 44.3477 3.29468 47.0266 5.97351C49.7052 8.65231 50.3464 12.573 50.5 19.2855M33.7144 50.5C40.4271 50.3464 44.3477 49.7052 47.0266 47.0266C49.7052 44.3477 50.3464 40.4271 50.5 33.7144M19.2855 50.5C12.573 50.3464 8.65231 49.7052 5.97351 47.0266C3.29468 44.3477 2.65347 40.4271 2.5 33.7144" stroke="#228B22" stroke-width="5" stroke-linecap="round" stroke-linejoin="round"/>
</svg>
