<svg width="21" height="20" viewBox="0 0 21 20" fill="none" xmlns="http://www.w3.org/2000/svg">
<path d="M16.3551 0H5.08922C2.68122 0 0.722168 1.95905 0.722168 4.36705V15.6329C0.722168 18.0409 2.68122 20 5.08922 20H16.3551C18.7631 20 20.7222 18.0409 20.7222 15.6329V4.36705C20.7222 1.95905 18.7631 0 16.3551 0ZM19.6912 15.6329C19.6912 17.4725 18.1947 18.9691 16.3551 18.9691H5.08922C3.24967 18.9691 1.7531 17.4725 1.7531 15.6329V4.36705C1.7531 2.52751 3.24967 1.03093 5.08922 1.03093H16.3551C18.1947 1.03093 19.6912 2.52751 19.6912 4.36705V15.6329ZM12.1418 9.05431L16.0325 4.20503C16.2107 3.98297 16.1751 3.65856 15.9531 3.48037C15.731 3.30227 15.4066 3.33777 15.2284 3.55988L11.4809 8.2306L7.73347 3.55988C7.68516 3.49968 7.62396 3.45109 7.55437 3.4177C7.48478 3.38431 7.40859 3.36698 7.3314 3.36697H4.29631C4.19916 3.36697 4.10398 3.39443 4.02175 3.44618C3.93953 3.49793 3.8736 3.57187 3.83158 3.65946C3.78955 3.74706 3.77314 3.84474 3.78422 3.94127C3.79531 4.03779 3.83345 4.12921 3.89425 4.20499L9.3025 10.9457L5.41178 15.795C5.23363 16.017 5.26922 16.3414 5.49124 16.5196C5.58257 16.5931 5.69629 16.6331 5.81351 16.633C5.89076 16.6331 5.96704 16.6159 6.0367 16.5825C6.10636 16.5491 6.16761 16.5004 6.2159 16.4401L9.96341 11.7694L13.7108 16.4401C13.7591 16.5003 13.8203 16.5489 13.8899 16.5823C13.9595 16.6157 14.0357 16.633 14.1129 16.633H17.1488C17.4335 16.633 17.6643 16.4023 17.6643 16.1176C17.6643 15.9861 17.6151 15.8663 17.5342 15.7752L12.1418 9.05431ZM14.3602 15.6021L5.37079 4.3979H7.08411L16.0735 15.6021H14.3602Z" fill="white"/>
</svg>
