<svg width="28" height="20" viewBox="0 0 28 20" fill="none" xmlns="http://www.w3.org/2000/svg">
<path d="M22.8834 0H4.83899C2.17073 0 0 2.17139 0 4.84032V15.1598C0 17.8287 2.17073 20 4.83899 20H22.8835C25.5516 20 27.7224 17.8287 27.7224 15.1598V4.84032C27.7222 2.17139 25.5515 0 22.8834 0ZM25.739 15.1597C25.739 16.735 24.4579 18.0166 22.8834 18.0166H4.83899C3.26429 18.0166 1.98325 16.735 1.98325 15.1597V4.84018C1.98325 3.26482 3.26429 1.98325 4.83899 1.98325H22.8835C24.4581 1.98325 25.7391 3.26482 25.7391 4.84018L25.739 15.1597Z" fill="white"/>
<path d="M19.184 9.17182L11.8333 4.32609C11.6838 4.22763 11.5104 4.17147 11.3316 4.16357C11.1528 4.15566 10.9751 4.1963 10.8175 4.28118C10.6599 4.36606 10.5282 4.49201 10.4363 4.64568C10.3445 4.79935 10.296 4.97501 10.2959 5.15403V14.8467C10.296 15.1096 10.4004 15.3618 10.5864 15.5478C10.7723 15.7337 11.0244 15.8382 11.2874 15.8383C11.4815 15.8384 11.6713 15.7814 11.8333 15.6745L19.184 10.8276C19.321 10.7372 19.4335 10.6143 19.5113 10.4698C19.5891 10.3253 19.6298 10.1638 19.6298 9.9997C19.6298 9.83559 19.5891 9.67405 19.5113 9.52957C19.4335 9.38508 19.321 9.26216 19.184 9.17182ZM12.2791 13.005V6.99541L16.8368 9.99976L12.2791 13.005Z" fill="white"/>
</svg>
