<svg width="1512" height="1109" viewBox="0 0 1512 1109" fill="none" xmlns="http://www.w3.org/2000/svg">
<g opacity="0.2" clip-path="url(#clip0_328_889)">
<mask id="mask0_328_889" style="mask-type:alpha" maskUnits="userSpaceOnUse" x="-44" y="40" width="1553" height="907">
<rect x="-44" y="40" width="1553" height="907" fill="#F0FFE1"/>
</mask>
<g mask="url(#mask0_328_889)">
<g style="mix-blend-mode:multiply">
<path d="M1181.17 489.103C1197.89 509.862 1214.27 531.138 1230.34 553.587C1244.85 573.835 1257.89 595.421 1276.24 612.455C1331.76 663.989 1428.29 673.006 1500.19 659.258C1587.01 642.655 1678.89 572.383 1626.85 477.9C1605.96 439.956 1569.81 412.1 1545.91 375.875C1504.54 313.159 1504.28 233.446 1479.66 162.857C1469.36 133.319 1454.21 104.621 1430.62 83.5174C1382.92 40.8348 1311.64 37.1245 1246.92 39.3751C1200.06 41.0001 1152.47 44.6888 1108.71 61.0975C1064.95 77.5061 1024.95 108.353 1007.82 150.878C980.501 218.698 1017.09 295.341 1064.7 351.535C1105.32 399.495 1144.07 443.005 1181.18 489.096L1181.17 489.103Z" fill="#D2EBF3"/>
<g style="mix-blend-mode:multiply">
<path d="M1387.03 661.135C1387.84 660.653 1388.71 660.171 1389.67 659.797C1389.82 659.74 1390.76 660.933 1391.18 661.76C1428.46 667.089 1466.95 665.607 1500.19 659.258C1587.01 642.655 1678.89 572.383 1626.85 477.9C1605.96 439.956 1569.81 412.1 1545.91 375.875C1504.54 313.159 1504.28 233.446 1479.66 162.857C1469.36 133.319 1454.21 104.621 1430.62 83.5174C1382.92 40.8348 1311.64 37.1245 1246.92 39.3751C1200.06 41.0001 1152.47 44.6888 1108.71 61.0975C1064.95 77.5061 1024.94 108.353 1007.82 150.878C980.501 218.698 1017.1 295.341 1064.7 351.535C1105.32 399.495 1144.07 443.005 1181.18 489.096C1197.9 509.855 1214.28 531.131 1230.35 553.58C1244.85 573.828 1257.9 595.414 1276.25 612.448C1305.15 639.276 1345.17 654.555 1387.04 661.128L1387.03 661.135ZM1370.15 90.8229C1371.48 90.4562 1372.8 89.96 1374.16 89.8234C1374.4 89.8018 1374.8 91.2399 1375.28 92.3688C1374.05 92.9081 1372.83 93.4474 1371.59 93.9867C1371.11 92.9297 1370.63 91.8799 1370.14 90.8229H1370.15ZM1281.64 123.921C1282.22 122.058 1283.07 120.275 1283.28 119.75C1288.04 121.332 1287.64 122.684 1286.74 123.762C1285.85 124.827 1284.71 126.013 1283.44 126.373C1281.38 126.955 1281.2 125.33 1281.63 123.921H1281.64ZM1410.25 246.763C1416.96 244.577 1420.79 245.13 1423.1 249.365C1423.58 250.243 1422.86 252.803 1422.1 253.083C1416.29 255.269 1414.03 251.062 1410.25 246.755V246.763ZM1157.21 266.292C1151.15 264.688 1143.86 267.737 1138.62 261.165C1144.03 256.434 1149.52 252.896 1157.01 257.548C1157.98 257.843 1159.15 257.893 1159.88 258.476C1163.72 261.568 1174.18 258.274 1171.76 266.062C1169.51 273.31 1162.25 265.659 1157.2 266.292H1157.21ZM1168.27 282.7C1168.15 282.125 1169.25 280.781 1169.98 280.644C1171.85 280.292 1172.77 281.471 1172.81 284.016C1172.2 284.512 1171.19 285.339 1170.17 286.166C1169.5 285.023 1168.54 283.93 1168.27 282.7ZM1104.93 392.758C1103.74 392.254 1102.6 390.73 1102.27 389.457C1101.79 387.667 1103.16 386.797 1105.59 386.934C1106.06 387.868 1107.01 389.033 1107.19 390.306C1107.37 391.6 1107.17 393.707 1104.92 392.751L1104.93 392.758ZM1457.48 428.638C1457.22 426.474 1458.66 425.057 1460.83 424.468C1463.62 425.079 1465.23 426.862 1465.17 429.537C1465.14 430.58 1463.73 432.485 1463.03 432.449C1460.55 432.32 1457.85 431.629 1457.48 428.638ZM1216.99 466.503C1212.25 464.749 1212.17 462.85 1214.69 459.478C1214.71 452.59 1219.66 455.372 1222.25 456.523C1227.86 459.011 1222.87 460.787 1221.24 462.699C1221.58 465.806 1222.36 468.488 1216.98 466.51L1216.99 466.503ZM1233.08 537.926C1230.42 533.828 1230.63 530.621 1236.45 529.707C1244.18 529.089 1248.62 530.621 1242.7 538.854C1239.08 542.557 1235.79 542.097 1233.08 537.919V537.926ZM1461.7 543.089C1461.94 541.097 1464.41 538.544 1466.5 537.782C1469.04 536.848 1468.55 540.414 1469.86 541.672C1470.82 544.822 1468.38 544.807 1466.48 544.851C1464.65 544.894 1461.41 545.433 1461.69 543.089H1461.7ZM1268.93 599.448C1267.7 599.146 1266.7 597.981 1265.23 596.945C1266.44 595.5 1267.14 593.774 1268.21 593.53C1270.86 592.926 1271.44 595.248 1271.76 597.104C1272.1 599.045 1270.52 599.843 1268.93 599.455V599.448Z" fill="#DDCCCB"/>
<path d="M1157 257.555C1149.51 252.91 1144.01 256.441 1138.62 261.172C1143.86 267.744 1151.14 264.696 1157.2 266.299C1157.14 263.387 1157.08 260.468 1157.01 257.555H1157Z" fill="#7E524D"/>
<path d="M1171.76 266.069C1174.17 258.282 1163.71 261.575 1159.87 258.483C1159.15 257.901 1157.97 257.85 1157 257.555C1157.07 260.468 1157.13 263.387 1157.19 266.299C1162.24 265.666 1169.5 273.317 1171.76 266.069Z" fill="#DCCBCA"/>
<path d="M1423.1 249.38C1420.79 245.137 1416.95 244.591 1410.25 246.777C1414.03 251.084 1416.28 255.283 1422.09 253.104C1422.85 252.817 1423.58 250.257 1423.1 249.387V249.38Z" fill="#B49693"/>
<path d="M1236.43 529.715C1230.62 530.628 1230.4 533.828 1233.07 537.933C1235.78 542.111 1239.07 542.571 1242.68 538.868C1237.61 537.761 1235.11 534.978 1236.43 529.722V529.715Z" fill="#DCCBCA"/>
<path d="M1465.15 429.544C1465.22 426.869 1463.61 425.086 1460.82 424.475C1458.63 425.064 1457.2 426.481 1457.47 428.645C1457.84 431.637 1460.54 432.327 1463.01 432.456C1463.71 432.492 1465.13 430.587 1465.15 429.544Z" fill="#B09897"/>
<path d="M1221.23 462.699C1219.69 460.363 1217.45 459.421 1214.67 459.485C1212.16 462.858 1212.23 464.756 1216.98 466.51C1222.34 468.495 1221.57 465.806 1221.23 462.699Z" fill="#9D807D"/>
<path d="M1242.68 538.868C1248.6 530.628 1244.17 529.104 1236.43 529.722C1235.11 534.978 1237.61 537.761 1242.68 538.868Z" fill="#774C45"/>
<path d="M1469.85 541.68C1468.54 540.421 1469.03 536.855 1466.48 537.79C1464.4 538.552 1461.92 541.104 1461.68 543.096C1461.4 545.433 1464.64 544.894 1466.47 544.858C1468.36 544.815 1470.81 544.836 1469.85 541.68H1469.85Z" fill="#9B726E"/>
<path d="M1169.97 280.651C1169.25 280.788 1168.14 282.132 1168.27 282.708C1168.53 283.937 1169.49 285.023 1170.16 286.173C1171.18 285.347 1172.2 284.52 1172.8 284.023C1172.76 281.478 1171.84 280.299 1169.97 280.651Z" fill="#C4B0AF"/>
<path d="M1389.67 659.804C1388.71 660.178 1387.84 660.66 1387.04 661.142C1388.42 661.358 1389.8 661.573 1391.19 661.768C1390.77 660.941 1389.83 659.747 1389.68 659.804H1389.67Z" fill="#CAB4B3"/>
<path d="M1221.23 462.699C1222.85 460.787 1227.85 459.011 1222.24 456.523C1219.66 455.38 1214.7 452.59 1214.67 459.478C1217.45 459.413 1219.7 460.363 1221.23 462.692V462.699Z" fill="#B49D99"/>
<path d="M1271.75 597.104C1271.43 595.256 1270.84 592.933 1268.2 593.53C1267.13 593.775 1266.42 595.5 1265.22 596.946C1266.69 597.981 1267.69 599.146 1268.91 599.448C1270.51 599.836 1272.08 599.045 1271.75 597.097V597.104Z" fill="#C1A6A4"/>
<path d="M1286.73 123.762C1287.63 122.684 1288.03 121.332 1283.27 119.75C1283.06 120.275 1282.21 122.058 1281.63 123.92C1281.19 125.33 1281.37 126.955 1283.44 126.372C1284.7 126.013 1285.85 124.819 1286.74 123.762H1286.73Z" fill="#B89C97"/>
<path d="M1374.15 89.8306C1372.79 89.9672 1371.47 90.4561 1370.14 90.83C1370.63 91.887 1371.11 92.9368 1371.59 93.9938C1372.82 93.4546 1374.05 92.9153 1375.28 92.376C1374.8 91.2471 1374.4 89.809 1374.16 89.8306H1374.15Z" fill="#B99E9A"/>
<path d="M1107.18 390.32C1107.01 389.048 1106.05 387.883 1105.58 386.948C1103.15 386.804 1101.78 387.674 1102.26 389.472C1102.59 390.745 1103.74 392.262 1104.92 392.772C1107.16 393.721 1107.37 391.622 1107.19 390.327L1107.18 390.32Z" fill="#A07A7D"/>
</g>
</g>
<g style="mix-blend-mode:multiply">
<path d="M425.342 1088.53C401.599 1067.04 395.901 1033.31 385.465 1003.42C353.536 911.974 270.245 847.044 184.866 797.948C99.4789 748.844 6.71886 709.268 -66.0101 643.619C-107.379 606.286 -143.219 551.113 -125.233 499.04C-112.553 462.347 -76.9041 438.662 -43.4254 417.809C38.9353 366.505 123.459 315.144 218.13 291.386C312.795 267.629 420.803 275.366 497.761 334.098C583.384 399.445 615.874 514.003 698.906 582.449C792.05 659.229 926.614 661.71 1037.63 711.008C1123.23 749.017 1199.72 828.313 1193.94 919.783C1187.85 1016.31 1074.93 1091.23 980.478 1061.4C875.673 1028.28 799.032 1018.86 688.271 1050.09C621.948 1068.78 487.716 1144.97 425.35 1088.54L425.342 1088.53Z" fill="#95A595"/>
</g>
<path d="M339.55 49.9451C347.949 50.3262 356.363 50.4988 364.777 50.3621C483.429 48.4351 846.668 -85.8756 915.677 92.261C923.146 111.546 918.452 133.491 909.396 152.136C884.457 203.498 825.087 236.948 766.912 232.41C705.099 227.593 652.867 185.284 592.271 172.485C445.677 141.53 286.063 245.36 149.218 282.219C119.444 290.236 84.15 296.477 60.4728 277.185C47.3869 266.522 40.9362 250.142 35.9321 234.266C24.4995 197.968 18.0414 157.903 32.4558 122.605C54.9816 67.4539 121.474 41.3093 182.401 38.843C234.915 36.7146 287.096 47.5435 339.543 49.9379L339.55 49.9451Z" fill="#B7C59E"/>
</g>
</g>
<defs>
<clipPath id="clip0_328_889">
<rect width="1109" height="1772" fill="white" transform="matrix(0 1 -1 0 1642 0)"/>
</clipPath>
</defs>
</svg>
