<svg xmlns="http://www.w3.org/2000/svg" version="1.1" xmlns:xlink="http://www.w3.org/1999/xlink" width="512" height="512" x="0" y="0" viewBox="0 0 64 64" style="enable-background:new 0 0 512 512" xml:space="preserve" class=""><g><g fill="#000"><path fill-rule="evenodd" d="M13.723 4.306A6 6 0 0 1 18.45 2h21.098a6 6 0 0 1 4.728 2.306L55.576 18.77A2 2 0 0 1 56 20v17a2 2 0 1 1-4 0V22H6v27a2 2 0 0 0 2 2h25a2 2 0 1 1 0 4H8a6 6 0 0 1-6-6V20a2 2 0 0 1 .424-1.231zM41.125 6.77 49.9 18H31V6h8.549a2 2 0 0 1 1.576.769zM27 6v12H8.1l8.775-11.231A2 2 0 0 1 18.45 6z" clip-rule="evenodd" fill="#000000" opacity="1" data-original="#000000"></path><path d="M38.5 62a2 2 0 1 1 0-4H53a5 5 0 0 0 0-10h-8.594l2.896 2.482a2 2 0 1 1-2.604 3.036l-7-6a2 2 0 0 1 0-3.037l7-6a2 2 0 1 1 2.604 3.037L44.407 44H53a9 9 0 1 1 0 18z" fill="#000000" opacity="1" data-original="#000000"></path></g></g></svg>