<svg xmlns="http://www.w3.org/2000/svg" version="1.1" xmlns:xlink="http://www.w3.org/1999/xlink" width="512" height="512" x="0" y="0" viewBox="0 0 1000 1000" style="enable-background:new 0 0 512 512" xml:space="preserve" class=""><g><path d="M843.2 775.2h-32.4l-.1-32.4c-.1-27.2-22.3-49.3-49.5-49.3h-.2c-27.1.1-49.2 22.2-49.3 49.3l-.1 32.4H303.4v-32.5c0-13.2-5.2-25.6-14.5-35-9.3-9.3-21.8-14.5-35-14.5-27.3 0-49.5 22.2-49.5 49.5v32.5H87.5c-35.6-.1-64.6-29.1-64.7-64.6V207.7c.1-35.6 29.1-64.6 64.6-64.7H630c35.6.1 64.6 29.1 64.7 64.6v85.2h135.8c24.7.1 46.9 13.9 57.9 36l.1.1 88.7 179.5v202.2c-.1 35.6-29.1 64.6-64.6 64.7h-69.4zm27.7-65h41.3V523.5l-81.9-165.7H629.7V208H87.8v502.2h56.3c14-47.3 57.9-82 109.8-82 30.6 0 59.3 11.9 80.9 33.5 13.7 13.7 23.5 30.3 28.9 48.4h287.8c5.4-18 15.1-34.5 28.8-48.2 21.5-21.5 50.1-33.4 80.5-33.5h.4c51.7.1 95.6 34.6 109.7 81.8z" fill="#000000" opacity="1" data-original="#000000" class=""></path><path d="M253.9 857.4c-30.5 0-59.2-11.8-80.8-33.4-21.7-21.6-33.6-50.3-33.7-80.9s11.8-59.4 33.4-81c21.6-21.7 50.3-33.6 80.9-33.7h.5c30.3 0 58.8 11.8 80.4 33.1 21.7 21.5 33.7 50.2 33.8 80.7v.4c.1 63.1-51.1 114.6-114.3 114.7 0 .1-.1.1-.2.1zm-.2-164c-13.2 0-25.6 5.2-34.9 14.6s-14.4 21.8-14.4 35 5.2 25.6 14.6 35c9.3 9.3 21.7 14.4 34.9 14.4h.1c13.2 0 25.6-5.2 35-14.6 9.3-9.4 14.4-21.8 14.4-35v-.3c-.1-13.2-5.2-25.5-14.6-34.8-9.3-9.2-21.6-14.3-34.7-14.3h-.2zM761.2 857.4c-30.5 0-59.2-11.8-80.8-33.4-21.7-21.6-33.6-50.3-33.7-80.9s11.8-59.4 33.4-81c21.6-21.7 50.3-33.6 80.9-33.7h.5c30.3 0 58.8 11.8 80.4 33.1 21.7 21.5 33.7 50.2 33.8 80.7v.4c.1 63.1-51.1 114.6-114.3 114.7 0 .1-.1.1-.2.1zm-.1-164c-13.2 0-25.6 5.2-34.9 14.6s-14.4 21.8-14.4 35 5.2 25.6 14.6 35c9.3 9.3 21.7 14.4 34.9 14.4h.1c27.3-.1 49.4-22.3 49.4-49.6v-.3c-.1-13.2-5.2-25.5-14.6-34.8-9.3-9.2-21.6-14.3-34.7-14.3h-.2zM662.2 578.2c-17.9 0-32.5-14.6-32.5-32.5V325.2c0-17.9 14.6-32.5 32.5-32.5s32.5 14.6 32.5 32.5v220.4c0 18-14.6 32.6-32.5 32.6z" fill="#000000" opacity="1" data-original="#000000" class=""></path></g></svg>