<svg xmlns="http://www.w3.org/2000/svg" version="1.1" xmlns:xlink="http://www.w3.org/1999/xlink" width="512" height="512" x="0" y="0" viewBox="0 0 512 512" style="enable-background:new 0 0 512 512" xml:space="preserve" class=""><g><path d="M255.986 368.994c69.385 0 125.834-56.437 125.834-125.807a125.977 125.977 0 0 0-125.834-125.834c-69.37 0-125.806 56.449-125.806 125.834a126.3 126.3 0 0 0 33.62 85.588l-13.013 48.547a15 15 0 0 0 21.993 16.872l50.895-29.408a125.582 125.582 0 0 0 32.311 4.208zm-41.747-33.4-25.091 14.5 5.868-21.89a15 15 0 0 0-4.268-14.863 94.89 94.89 0 0 1-30.568-70.149 95.775 95.775 0 1 1 66.2 91.128 15 15 0 0 0-12.141 1.271zM503.8 253.9c.163-6.138.332-12.485.039-19.093a71.337 71.337 0 0 0-71.782-68.279C402.4 98.677 334.645 51.136 255.986 51.136S109.6 98.676 79.942 166.527a71.339 71.339 0 0 0-71.779 68.257c-.294 6.632-.125 12.98.038 19.119.173 6.486.351 13.193.018 20.73a71.432 71.432 0 0 0 68.18 74.36q1.678.078 3.349.078a70.393 70.393 0 0 0 27.415-5.54 14.973 14.973 0 0 0 8.114-19.377 8.044 8.044 0 0 0-.824-2.021 162.3 162.3 0 0 1-20.491-78.946c0-89.355 72.684-162.051 162.024-162.051s162.052 72.7 162.052 162.051a161.532 161.532 0 0 1-132.157 159.287 41.584 41.584 0 1 0 1.328 30.209 192.361 192.361 0 0 0 130.075-85.231 70.237 70.237 0 0 0 14.951 1.62q1.653 0 3.315-.076a71.366 71.366 0 0 0 68.23-74.383c-.332-7.513-.153-14.226.02-20.713zM77.733 319.023a41.405 41.405 0 0 1-39.543-43.085c.379-8.579.178-16.151 0-22.833-.156-5.875-.3-11.423-.055-17.014a41.394 41.394 0 0 1 31.274-38.35 192.359 192.359 0 0 0 8.3 116.877l-.018.007q.876 2.232 1.809 4.443-.877-.004-1.767-.045zm170.118 111.841a11.589 11.589 0 1 1 11.588-11.593v.022a11.6 11.6 0 0 1-11.588 11.571zm225.958-154.947a41.366 41.366 0 0 1-39.591 43.108q-.864.041-1.724.044a.255.255 0 0 0 .011-.177 192.27 192.27 0 0 0 10.086-121.15 41.391 41.391 0 0 1 31.275 38.371c.247 5.568.1 11.116-.056 16.99-.178 6.682-.38 14.255-.001 22.814zm-252.869-34.2a14.464 14.464 0 0 1 .07 1.47 14.661 14.661 0 0 1-.07 1.48c-.05.48-.13.97-.22 1.45s-.22.96-.36 1.43-.31.93-.5 1.38-.4.9-.63 1.33-.48.85-.75 1.26a12.819 12.819 0 0 1-.87 1.18c-.31.39-.65.75-.99 1.1a14.668 14.668 0 0 1-1.1.99c-.38.31-.78.6-1.18.88-.41.26-.83.52-1.27.75a13.2 13.2 0 0 1-1.32.62 14.253 14.253 0 0 1-1.38.5c-.47.14-.95.26-1.43.36a14.512 14.512 0 0 1-1.45.22 15.681 15.681 0 0 1-2.96 0 14.512 14.512 0 0 1-1.45-.22c-.48-.1-.96-.22-1.43-.36a14.253 14.253 0 0 1-1.38-.5 13.2 13.2 0 0 1-1.32-.62c-.44-.23-.86-.49-1.27-.75-.4-.28-.8-.57-1.18-.88a14.668 14.668 0 0 1-1.1-.99c-.34-.35-.68-.71-.99-1.1a12.819 12.819 0 0 1-.87-1.18q-.4-.615-.75-1.26c-.23-.43-.44-.88-.63-1.33s-.35-.91-.5-1.38-.26-.95-.36-1.43a14.086 14.086 0 0 1-.29-2.93c0-.49.03-.98.07-1.47s.13-.98.22-1.46.22-.95.36-1.42.31-.93.5-1.38.4-.9.63-1.33a15.584 15.584 0 0 1 1.62-2.45c.31-.38.65-.75.99-1.09a14.668 14.668 0 0 1 1.1-.99c.38-.31.78-.61 1.18-.88a14.6 14.6 0 0 1 1.27-.75q.645-.345 1.32-.63c.45-.18.92-.35 1.38-.49a14.242 14.242 0 0 1 1.43-.36 14.718 14.718 0 0 1 5.86 0 14.242 14.242 0 0 1 1.43.36c.46.14.93.31 1.38.49s.89.4 1.32.63a14.6 14.6 0 0 1 1.27.75c.4.27.8.57 1.18.88a14.668 14.668 0 0 1 1.1.99c.34.34.68.71.99 1.09a15.584 15.584 0 0 1 1.62 2.45c.23.43.44.88.63 1.33s.35.91.5 1.38.26.95.36 1.42.17.966.22 1.456zm20.06 1.47a14.988 14.988 0 0 1 14.986-15h.028a15 15 0 1 1-15.014 15zm50.06 1.476a14.661 14.661 0 0 1-.07-1.48 14.464 14.464 0 0 1 .07-1.47c.05-.49.13-.98.22-1.46s.22-.95.36-1.42a13.353 13.353 0 0 1 .5-1.38c.18-.45.4-.9.62-1.33a16.64 16.64 0 0 1 1.63-2.45c.31-.38.65-.75.99-1.09a14.668 14.668 0 0 1 1.1-.99 12.913 12.913 0 0 1 1.18-.88q.615-.4 1.26-.75c.43-.23.88-.44 1.33-.63s.92-.35 1.38-.49a14.242 14.242 0 0 1 1.43-.36 14.684 14.684 0 0 1 4.4-.22 14.277 14.277 0 0 1 1.46.22 13.41 13.41 0 0 1 1.42.36c.47.14.94.31 1.39.49s.89.4 1.32.63a14.6 14.6 0 0 1 1.27.75c.4.27.8.57 1.18.88a12.8 12.8 0 0 1 1.09.99c.35.34.68.71 1 1.09.3.38.6.78.87 1.19a14.425 14.425 0 0 1 .75 1.26c.23.43.44.88.63 1.33a13.294 13.294 0 0 1 .49 1.38 11.812 11.812 0 0 1 .36 1.42 11.959 11.959 0 0 1 .22 1.46 14.479 14.479 0 0 1 .08 1.47 14.676 14.676 0 0 1-.08 1.48 12.1 12.1 0 0 1-.22 1.45 11.967 11.967 0 0 1-.36 1.43 14.174 14.174 0 0 1-.49 1.38c-.19.45-.4.9-.63 1.33s-.48.85-.75 1.26-.57.81-.87 1.18c-.32.39-.65.75-1 1.1a12.8 12.8 0 0 1-1.09.99c-.38.31-.78.6-1.18.87a14.692 14.692 0 0 1-1.27.76 13.2 13.2 0 0 1-1.32.62 13.525 13.525 0 0 1-1.39.5c-.46.14-.94.26-1.42.36a14.461 14.461 0 0 1-2.93.29 14.661 14.661 0 0 1-1.48-.07 14.512 14.512 0 0 1-1.45-.22c-.48-.1-.96-.22-1.43-.36a14.253 14.253 0 0 1-1.38-.5 13.359 13.359 0 0 1-1.33-.62c-.43-.23-.85-.49-1.26-.76a12.819 12.819 0 0 1-1.18-.87 14.668 14.668 0 0 1-1.1-.99c-.34-.35-.68-.71-.99-1.1a12.819 12.819 0 0 1-.87-1.18c-.27-.41-.53-.83-.76-1.26s-.44-.88-.62-1.33a14.253 14.253 0 0 1-.5-1.38c-.14-.47-.26-.95-.36-1.43s-.17-.97-.22-1.45z" fill="#000000" opacity="1" data-original="#000000" class=""></path></g></svg>